# xmcd CD database file
#
# Track frame offsets:
#	150
#	19130
#	43620
#	73947
#	112092
#	131935
#	157327
#	185022
#	208472
#	232772
#	254242
#	291750
#
# Disc length: 4258 seconds
#
# Revision: 0
# Processed by: cddbd v1.5.2PL0 Copyright (c) Steve Scherf et al.
# Submitted via: CDex 1.70beta2
#
DISCID=c910a00c
DTITLE=Benson, George - Sax Master
DYEAR=1998
DGENRE=Jazz
TTITLE0=Johnny Come Lately
TTITLE1=My Melancholy Baby
TTITLE2=The Way You Look Tonight
TTITLE3=For Heaven's Sake
TTITLE4=Some of These Days
TTITLE5=Love Nest
TTITLE6=I Surrender Dear
TTITLE7=Lullaby of the Leaves
TTITLE8=Ja Da
TTITLE9=A Child Is Born
TTITLE10=The Shadow of Your Smile
TTITLE11=No Head/After You've Gone
EXTD=YEAR: 1998
EXTT0=
EXTT1=
EXTT2=
EXTT3=
EXTT4=
EXTT5=
EXTT6=
EXTT7=
EXTT8=
EXTT9=
EXTT10=
EXTT11=
PLAYORDER=
